<svg xmlns="http://www.w3.org/2000/svg" viewBox="0 0 120 72" fill="none">
  <g class="rabbit">
    <ellipse cx="96" cy="38" rx="7" ry="6" fill="#dbeee0"/>
    <ellipse cx="48" cy="42" rx="28" ry="16" fill="#3f8f5a"/>
    <ellipse cx="72" cy="34" rx="16" ry="14" fill="#3f8f5a"/>
    <ellipse cx="58" cy="18" rx="5" ry="16" fill="#3f8f5a" transform="rotate(-18 58 18)"/>
    <ellipse cx="68" cy="16" rx="4.5" ry="15" fill="#3f8f5a" transform="rotate(8 68 16)"/>
    <ellipse cx="58" cy="18" rx="2.4" ry="11" fill="#cfe8d4" transform="rotate(-18 58 18)"/>
    <ellipse cx="68" cy="16" rx="2" ry="10" fill="#cfe8d4" transform="rotate(8 68 16)"/>
    <circle cx="80" cy="32" r="1.7" fill="#1c0f12"/>
    <ellipse cx="84" cy="36" rx="3" ry="2" fill="#dbeee0"/>
    <ellipse class="leg" cx="34" cy="56" rx="7" ry="4" fill="#2f6f45"/>
    <ellipse class="leg" cx="52" cy="58" rx="7" ry="3.5" fill="#2f6f45"/>
    <ellipse class="leg" cx="64" cy="56" rx="6" ry="3.2" fill="#347a4c"/>
    <ellipse class="leg" cx="76" cy="55" rx="6" ry="3" fill="#347a4c"/>
  </g>
</svg>
